<svg width="178" height="57" viewBox="0 0 178 57" fill="none" xmlns="http://www.w3.org/2000/svg">
<g filter="url(#filter0_d_67_1582)">
<path d="M15.1269 1.12103C12.0647 1.48413 10.1524 2.94866 9.52297 5.41778C9.2809 6.41027 9.09934 8.96412 9.09934 11.5906C9.08724 14.1444 8.90569 15.3669 8.37313 16.4441C7.74375 17.715 6.82388 18.3201 5.202 18.5017L4.5 18.5864V21.0434V23.5005L4.95993 23.5731C6.53339 23.8152 7.47747 24.2751 8.01003 25.0497C8.82096 26.2359 9.09934 27.7488 9.09934 31.0773C9.11145 36.0639 9.52297 37.8553 10.9633 39.2229C12.3431 40.5301 13.5898 40.9295 16.5672 41.0264L18.528 41.099L18.9879 41.8373C19.5931 42.8177 20.864 44.0644 21.7717 44.5364C22.4859 44.9237 22.5101 44.9479 22.5827 45.5531C22.7642 46.9208 23.6599 48.2038 24.8218 48.7242C25.6812 49.1236 26.8794 49.0873 27.7146 48.6274C28.6466 48.119 29.3001 47.1266 29.4938 45.9646C29.5301 45.6983 29.5906 45.3594 29.6269 45.2142C29.6511 45.0569 29.9295 44.8148 30.3653 44.5727C31.2851 44.0523 32.3502 43.0114 33.0764 41.9583L33.6574 41.099L35.6303 41.0264C38.5957 40.9295 39.9391 40.4696 41.2221 39.1261C42.6261 37.6495 42.8561 36.7175 42.9892 31.6219C43.0498 29.5885 43.1466 27.652 43.2192 27.3252C43.5218 25.7759 44.248 24.5898 45.1679 24.1177C45.6157 23.8878 46.2451 23.7183 47.1408 23.5731L47.5886 23.5005V21.0434V18.5864L46.8987 18.5017C44.8774 18.2717 43.8607 17.3398 43.2918 15.2216C43.1466 14.677 43.0619 13.515 42.9771 10.6828C42.9166 8.39525 42.8077 6.495 42.6988 5.93823C42.0694 2.51293 39.5881 0.999989 34.5531 0.999989H33.3064V3.45701V5.91402L34.7467 6.04716C36.4654 6.19241 36.877 6.38606 37.2643 7.17279C37.5063 7.66904 37.5305 8.03214 37.6637 11.2638C37.7363 13.2246 37.8694 15.2822 37.9663 15.8389C38.3294 17.8844 39.1887 19.3853 40.6169 20.4383L41.4279 21.0313L41.1011 21.2734C39.1766 22.7016 38.3899 23.9846 37.9663 26.3932C37.8573 26.9742 37.7242 28.8623 37.6637 30.5931C37.6032 32.3239 37.5184 33.9579 37.4821 34.2242C37.3006 35.4588 36.5017 35.9671 34.5773 36.076L33.3064 36.1365V37.1169C33.3064 37.94 33.258 38.2184 32.9917 38.7388C32.1566 40.4091 30.2563 41.0506 28.5255 40.2396C27.5209 39.7555 26.9521 39.0898 26.6979 38.0973C26.6374 37.8431 26.6737 37.7947 26.8794 37.7947C27.291 37.7947 28.3924 37.3348 29.167 36.8265C30.7889 35.7855 32.1808 33.8732 32.3139 32.4934C32.3502 31.9971 32.3139 31.864 32.0476 31.5372C31.3577 30.7142 29.7117 30.3026 26.7705 30.2179C23.5025 30.109 21.2997 30.5447 20.3677 31.4646C19.9925 31.8398 19.9683 31.9124 20.0167 32.5176C20.1741 34.4057 22.3164 36.7417 24.6645 37.5769C25.4391 37.8553 25.4633 37.8674 25.4028 38.2426C25.2576 39.0777 24.3377 40.0339 23.2968 40.4091C22.74 40.6028 21.6749 40.627 21.0213 40.4454C20.3435 40.2639 19.2542 39.1261 18.9879 38.3394C18.8669 38.0126 18.7822 37.3832 18.7822 36.9475V36.1365L17.5476 36.076C16.1799 36.0034 15.6231 35.8219 15.1269 35.3014C14.6549 34.781 14.5701 34.2726 14.4854 31.1983C14.4007 27.9909 14.2676 26.599 13.9287 25.3523C13.505 23.7546 12.7304 22.5685 11.5564 21.6849C11.169 21.3944 10.818 21.1161 10.7938 21.0798C10.7575 21.0313 11.0601 20.753 11.4716 20.4504C12.9604 19.3611 13.7955 17.8844 14.1828 15.6695C14.2554 15.2458 14.3886 13.2246 14.4733 11.1912C14.6065 7.899 14.6428 7.42697 14.8606 7.07596C15.26 6.38606 15.7321 6.19241 17.3419 6.04716L18.7822 5.91402V3.45701V0.999989L17.3661 1.01209C16.5793 1.0242 15.5747 1.07261 15.1269 1.12103Z" fill="#319795"/>
<path d="M19.4479 16.9041C18.6975 17.243 18.056 18.2355 18.056 19.0585C18.0681 19.8815 18.7822 20.9103 19.5448 21.2008C21.5055 21.9512 23.4179 19.821 22.4738 17.945C21.9655 16.9525 20.4888 16.4441 19.4479 16.9041Z" fill="#319795"/>
<path d="M31.0672 16.904C30.2684 17.255 29.6753 18.1628 29.6753 19.0221C29.6874 19.8815 30.3894 20.9103 31.164 21.2008C31.9266 21.4913 32.9554 21.2976 33.5968 20.7408C34.3594 20.063 34.5046 18.4896 33.8752 17.6544C33.2337 16.8314 31.9992 16.4925 31.0672 16.904Z" fill="#319795"/>
</g>
<g filter="url(#filter1_d_67_1582)">
<path d="M58.3111 22V5.63636H62.6364V8.52344H62.8281C63.169 7.56463 63.7372 6.80824 64.5327 6.25426C65.3281 5.70028 66.2798 5.4233 67.3878 5.4233C68.5099 5.4233 69.4652 5.70384 70.2536 6.26491C71.0419 6.81889 71.5675 7.57173 71.8303 8.52344H72.0007C72.3345 7.58594 72.9382 6.83665 73.8118 6.27557C74.6925 5.70739 75.733 5.4233 76.9332 5.4233C78.4602 5.4233 79.6996 5.9098 80.6513 6.88281C81.6101 7.84872 82.0895 9.21946 82.0895 10.995V22H77.5618V11.8899C77.5618 10.9808 77.3203 10.299 76.8374 9.84446C76.3544 9.38991 75.7507 9.16264 75.0263 9.16264C74.2024 9.16264 73.5597 9.42543 73.098 9.95099C72.6364 10.4695 72.4055 11.1548 72.4055 12.0071V22H68.0057V11.794C68.0057 10.9915 67.7749 10.3523 67.3132 9.87642C66.8587 9.40057 66.2585 9.16264 65.5128 9.16264C65.0085 9.16264 64.554 9.29048 64.1491 9.54616C63.7514 9.79474 63.4354 10.1463 63.201 10.6009C62.9666 11.0483 62.8494 11.5739 62.8494 12.1776V22H58.3111ZM93.0678 22.3196C91.413 22.3196 89.9819 21.968 88.7745 21.2649C87.5742 20.5547 86.6474 19.5675 85.994 18.3033C85.3406 17.032 85.0138 15.5582 85.0138 13.8821C85.0138 12.1918 85.3406 10.7145 85.994 9.45028C86.6474 8.17898 87.5742 7.19176 88.7745 6.48864C89.9819 5.77841 91.413 5.4233 93.0678 5.4233C94.7227 5.4233 96.1502 5.77841 97.3505 6.48864C98.5579 7.19176 99.4883 8.17898 100.142 9.45028C100.795 10.7145 101.122 12.1918 101.122 13.8821C101.122 15.5582 100.795 17.032 100.142 18.3033C99.4883 19.5675 98.5579 20.5547 97.3505 21.2649C96.1502 21.968 94.7227 22.3196 93.0678 22.3196ZM93.0891 18.804C93.842 18.804 94.4705 18.5909 94.9748 18.1648C95.479 17.7315 95.859 17.142 96.1147 16.3963C96.3775 15.6506 96.5089 14.8018 96.5089 13.8501C96.5089 12.8984 96.3775 12.0497 96.1147 11.304C95.859 10.5582 95.479 9.96875 94.9748 9.53551C94.4705 9.10227 93.842 8.88565 93.0891 8.88565C92.3292 8.88565 91.69 9.10227 91.1715 9.53551C90.6602 9.96875 90.2731 10.5582 90.0103 11.304C89.7546 12.0497 89.6268 12.8984 89.6268 13.8501C89.6268 14.8018 89.7546 15.6506 90.0103 16.3963C90.2731 17.142 90.6602 17.7315 91.1715 18.1648C91.69 18.5909 92.3292 18.804 93.0891 18.804ZM111.466 22.3196C109.811 22.3196 108.38 21.968 107.173 21.2649C105.973 20.5547 105.046 19.5675 104.392 18.3033C103.739 17.032 103.412 15.5582 103.412 13.8821C103.412 12.1918 103.739 10.7145 104.392 9.45028C105.046 8.17898 105.973 7.19176 107.173 6.48864C108.38 5.77841 109.811 5.4233 111.466 5.4233C113.121 5.4233 114.549 5.77841 115.749 6.48864C116.956 7.19176 117.887 8.17898 118.54 9.45028C119.194 10.7145 119.52 12.1918 119.52 13.8821C119.52 15.5582 119.194 17.032 118.54 18.3033C117.887 19.5675 116.956 20.5547 115.749 21.2649C114.549 21.968 113.121 22.3196 111.466 22.3196ZM111.488 18.804C112.24 18.804 112.869 18.5909 113.373 18.1648C113.877 17.7315 114.257 17.142 114.513 16.3963C114.776 15.6506 114.907 14.8018 114.907 13.8501C114.907 12.8984 114.776 12.0497 114.513 11.304C114.257 10.5582 113.877 9.96875 113.373 9.53551C112.869 9.10227 112.24 8.88565 111.488 8.88565C110.728 8.88565 110.088 9.10227 109.57 9.53551C109.059 9.96875 108.672 10.5582 108.409 11.304C108.153 12.0497 108.025 12.8984 108.025 13.8501C108.025 14.8018 108.153 15.6506 108.409 16.3963C108.672 17.142 109.059 17.7315 109.57 18.1648C110.088 18.5909 110.728 18.804 111.488 18.804ZM128.501 22.2663C127.258 22.2663 126.132 21.9467 125.124 21.3075C124.123 20.6612 123.327 19.7131 122.738 18.4631C122.155 17.206 121.864 15.6648 121.864 13.8395C121.864 11.9645 122.166 10.4055 122.77 9.16264C123.373 7.91264 124.176 6.97869 125.177 6.3608C126.186 5.7358 127.29 5.4233 128.49 5.4233C129.407 5.4233 130.17 5.57955 130.781 5.89205C131.399 6.19744 131.896 6.58097 132.272 7.04261C132.656 7.49716 132.947 7.9446 133.146 8.38494H133.284V0.181818H137.812V22H133.338V19.3793H133.146C132.933 19.8338 132.631 20.2848 132.24 20.7322C131.857 21.1726 131.356 21.5384 130.738 21.8295C130.127 22.1207 129.382 22.2663 128.501 22.2663ZM129.939 18.6548C130.671 18.6548 131.289 18.456 131.793 18.0582C132.304 17.6534 132.695 17.0888 132.965 16.3643C133.242 15.6399 133.38 14.7912 133.38 13.8182C133.38 12.8452 133.245 12 132.975 11.2827C132.706 10.5653 132.315 10.0114 131.804 9.62074C131.292 9.23011 130.671 9.0348 129.939 9.0348C129.194 9.0348 128.565 9.23722 128.054 9.64204C127.542 10.0469 127.155 10.608 126.892 11.3253C126.63 12.0426 126.498 12.8736 126.498 13.8182C126.498 14.7699 126.63 15.6115 126.892 16.343C127.162 17.0675 127.549 17.6357 128.054 18.0476C128.565 18.4524 129.194 18.6548 129.939 18.6548Z" fill="black"/>
</g>
<g filter="url(#filter2_d_67_1582)">
<path d="M82.0305 33.5824L81.8707 43H77.13L77.4922 21.1818H82.0945L81.956 29.5554H82.1477C82.5313 28.5824 83.142 27.8189 83.9801 27.2649C84.8253 26.7038 85.8622 26.4233 87.0909 26.4233C88.2344 26.4233 89.2251 26.6719 90.0632 27.169C90.9084 27.6662 91.5582 28.3764 92.0128 29.2997C92.4673 30.2159 92.6839 31.3061 92.6626 32.5703L92.4815 43H87.7408L87.9006 33.4545C87.9219 32.4744 87.6875 31.7109 87.1974 31.1641C86.7074 30.6172 86.0149 30.3438 85.12 30.3438C84.5234 30.3438 83.9943 30.4716 83.5327 30.7273C83.071 30.983 82.7088 31.3523 82.446 31.8352C82.1832 32.3182 82.0447 32.9006 82.0305 33.5824ZM103.425 43.3089C101.756 43.3089 100.322 42.9574 99.1213 42.2543C97.921 41.5511 97.0012 40.5675 96.362 39.3033C95.7299 38.032 95.4281 36.5547 95.4565 34.8714C95.4849 33.1882 95.8365 31.7109 96.5112 30.4396C97.1859 29.1683 98.1341 28.1811 99.3556 27.478C100.577 26.7749 102.026 26.4233 103.702 26.4233C105.371 26.4233 106.806 26.7784 108.006 27.4886C109.206 28.1918 110.123 29.179 110.755 30.4503C111.394 31.7145 111.699 33.1918 111.671 34.8821C111.643 36.5582 111.291 38.032 110.616 39.3033C109.942 40.5675 108.993 41.5511 107.772 42.2543C106.55 42.9574 105.101 43.3089 103.425 43.3089ZM103.5 39.6868C104.217 39.6868 104.824 39.4808 105.322 39.0689C105.819 38.6499 106.199 38.0746 106.461 37.343C106.724 36.6115 106.863 35.777 106.877 34.8395C106.891 33.902 106.778 33.071 106.536 32.3466C106.302 31.6151 105.943 31.0398 105.46 30.6207C104.984 30.2017 104.391 29.9922 103.681 29.9922C102.942 29.9922 102.321 30.2017 101.817 30.6207C101.312 31.0398 100.929 31.6151 100.666 32.3466C100.403 33.0781 100.265 33.9126 100.251 34.8501C100.236 35.7876 100.346 36.6222 100.581 37.3537C100.822 38.0781 101.188 38.6499 101.678 39.0689C102.168 39.4808 102.775 39.6868 103.5 39.6868ZM125.057 36.0007L125.206 26.6364H129.926L129.649 43H125.132L125.185 40.0064H125.014C124.631 40.9794 124.002 41.7571 123.129 42.3395C122.262 42.9219 121.215 43.2131 119.986 43.2131C118.885 43.2131 117.919 42.9645 117.088 42.4673C116.264 41.9631 115.625 41.2528 115.171 40.3366C114.723 39.4134 114.51 38.3232 114.531 37.0661L114.702 26.6364H119.421L119.262 36.1925C119.247 37.1371 119.485 37.8828 119.975 38.4297C120.465 38.9766 121.133 39.25 121.978 39.25C122.518 39.25 123.019 39.1257 123.48 38.8771C123.942 38.6286 124.318 38.2663 124.61 37.7905C124.901 37.3075 125.05 36.7109 125.057 36.0007ZM138.083 33.5717L137.924 43H133.215L133.481 26.6364H137.977L137.924 29.5554H138.115C138.492 28.5895 139.113 27.826 139.98 27.2649C140.853 26.7038 141.894 26.4233 143.101 26.4233C144.245 26.4233 145.235 26.6754 146.074 27.1797C146.912 27.6768 147.558 28.3871 148.012 29.3104C148.467 30.2266 148.68 31.3132 148.652 32.5703L148.481 43H143.762L143.922 33.4439C143.943 32.4709 143.705 31.7074 143.208 31.1534C142.718 30.5994 142.029 30.3224 141.141 30.3224C140.551 30.3224 140.026 30.4538 139.564 30.7166C139.11 30.9723 138.751 31.3416 138.488 31.8246C138.233 32.3075 138.098 32.8899 138.083 33.5717ZM157.973 43.2557C156.738 43.2557 155.623 42.9361 154.628 42.2969C153.641 41.6577 152.863 40.7131 152.295 39.4631C151.734 38.2131 151.468 36.6683 151.496 34.8288C151.525 32.9467 151.851 31.3842 152.476 30.1413C153.108 28.8913 153.929 27.9609 154.937 27.3501C155.953 26.7322 157.05 26.4233 158.229 26.4233C159.131 26.4233 159.887 26.576 160.498 26.8814C161.109 27.1868 161.599 27.5703 161.968 28.032C162.345 28.4865 162.632 28.9446 162.831 29.4062H162.959L163.098 21.1818H167.817L167.455 43H162.789L162.831 40.3793H162.65C162.43 40.8409 162.118 41.2919 161.713 41.7322C161.315 42.1726 160.807 42.5384 160.189 42.8295C159.571 43.1136 158.833 43.2557 157.973 43.2557ZM159.571 39.527C160.267 39.527 160.864 39.3317 161.361 38.9411C161.865 38.5504 162.256 38.0036 162.533 37.3004C162.81 36.5902 162.956 35.7628 162.97 34.8182C162.984 33.8665 162.867 33.0426 162.618 32.3466C162.37 31.6506 162 31.1143 161.51 30.7379C161.027 30.3544 160.431 30.1626 159.721 30.1626C158.996 30.1626 158.385 30.358 157.888 30.7486C157.391 31.1321 157.007 31.6754 156.738 32.3786C156.475 33.0746 156.336 33.8878 156.322 34.8182C156.308 35.7486 156.422 36.5689 156.663 37.2791C156.912 37.9822 157.277 38.5327 157.76 38.9304C158.25 39.3281 158.854 39.527 159.571 39.527Z" fill="#319795"/>
</g>
<defs>
<filter id="filter0_d_67_1582" x="0.5" y="1" width="51.0886" height="56" filterUnits="userSpaceOnUse" color-interpolation-filters="sRGB">
<feFlood flood-opacity="0" result="BackgroundImageFix"/>
<feColorMatrix in="SourceAlpha" type="matrix" values="0 0 0 0 0 0 0 0 0 0 0 0 0 0 0 0 0 0 127 0" result="hardAlpha"/>
<feOffset dy="4"/>
<feGaussianBlur stdDeviation="2"/>
<feComposite in2="hardAlpha" operator="out"/>
<feColorMatrix type="matrix" values="0 0 0 0 0 0 0 0 0 0 0 0 0 0 0 0 0 0 0.25 0"/>
<feBlend mode="normal" in2="BackgroundImageFix" result="effect1_dropShadow_67_1582"/>
<feBlend mode="normal" in="SourceGraphic" in2="effect1_dropShadow_67_1582" result="shape"/>
</filter>
<filter id="filter1_d_67_1582" x="54.311" y="0.181763" width="87.5011" height="30.1378" filterUnits="userSpaceOnUse" color-interpolation-filters="sRGB">
<feFlood flood-opacity="0" result="BackgroundImageFix"/>
<feColorMatrix in="SourceAlpha" type="matrix" values="0 0 0 0 0 0 0 0 0 0 0 0 0 0 0 0 0 0 127 0" result="hardAlpha"/>
<feOffset dy="4"/>
<feGaussianBlur stdDeviation="2"/>
<feComposite in2="hardAlpha" operator="out"/>
<feColorMatrix type="matrix" values="0 0 0 0 0 0 0 0 0 0 0 0 0 0 0 0 0 0 0.25 0"/>
<feBlend mode="normal" in2="BackgroundImageFix" result="effect1_dropShadow_67_1582"/>
<feBlend mode="normal" in="SourceGraphic" in2="effect1_dropShadow_67_1582" result="shape"/>
</filter>
<filter id="filter2_d_67_1582" x="73.13" y="21.1818" width="98.6871" height="30.1272" filterUnits="userSpaceOnUse" color-interpolation-filters="sRGB">
<feFlood flood-opacity="0" result="BackgroundImageFix"/>
<feColorMatrix in="SourceAlpha" type="matrix" values="0 0 0 0 0 0 0 0 0 0 0 0 0 0 0 0 0 0 127 0" result="hardAlpha"/>
<feOffset dy="4"/>
<feGaussianBlur stdDeviation="2"/>
<feComposite in2="hardAlpha" operator="out"/>
<feColorMatrix type="matrix" values="0 0 0 0 0 0 0 0 0 0 0 0 0 0 0 0 0 0 0.25 0"/>
<feBlend mode="normal" in2="BackgroundImageFix" result="effect1_dropShadow_67_1582"/>
<feBlend mode="normal" in="SourceGraphic" in2="effect1_dropShadow_67_1582" result="shape"/>
</filter>
</defs>
</svg>
