<svg width="173" height="49" viewBox="0 0 173 49" fill="none" xmlns="http://www.w3.org/2000/svg">
<path d="M10.6269 1.12103C7.56471 1.48413 5.65235 2.94866 5.02297 5.41778C4.7809 6.41027 4.59934 8.96412 4.59934 11.5906C4.58724 14.1444 4.40569 15.3669 3.87313 16.4441C3.24375 17.715 2.32388 18.3201 0.702005 18.5017L0 18.5864V21.0434V23.5005L0.459934 23.5731C2.03339 23.8152 2.97747 24.2751 3.51003 25.0497C4.32096 26.2359 4.59934 27.7488 4.59934 31.0773C4.61145 36.0639 5.02297 37.8553 6.46329 39.2229C7.84309 40.5301 9.08975 40.9295 12.0672 41.0264L14.028 41.099L14.4879 41.8373C15.0931 42.8177 16.364 44.0644 17.2717 44.5364C17.9859 44.9237 18.0101 44.9479 18.0827 45.5531C18.2642 46.9208 19.1599 48.2038 20.3218 48.7242C21.1812 49.1236 22.3794 49.0873 23.2146 48.6274C24.1466 48.119 24.8001 47.1266 24.9938 45.9646C25.0301 45.6983 25.0906 45.3594 25.1269 45.2142C25.1511 45.0569 25.4295 44.8148 25.8653 44.5727C26.7851 44.0523 27.8502 43.0114 28.5764 41.9583L29.1574 41.099L31.1303 41.0264C34.0957 40.9295 35.4391 40.4696 36.7221 39.1261C38.1261 37.6495 38.3561 36.7175 38.4892 31.6219C38.5498 29.5885 38.6466 27.652 38.7192 27.3252C39.0218 25.7759 39.748 24.5898 40.6679 24.1177C41.1157 23.8878 41.7451 23.7183 42.6408 23.5731L43.0886 23.5005V21.0434V18.5864L42.3987 18.5017C40.3774 18.2717 39.3607 17.3398 38.7918 15.2216C38.6466 14.677 38.5619 13.515 38.4771 10.6828C38.4166 8.39525 38.3077 6.495 38.1988 5.93823C37.5694 2.51293 35.0881 0.999989 30.0531 0.999989H28.8064V3.45701V5.91402L30.2467 6.04716C31.9654 6.19241 32.377 6.38606 32.7643 7.17279C33.0063 7.66904 33.0305 8.03214 33.1637 11.2638C33.2363 13.2246 33.3694 15.2822 33.4663 15.8389C33.8294 17.8844 34.6887 19.3853 36.1169 20.4383L36.9279 21.0313L36.6011 21.2734C34.6766 22.7016 33.8899 23.9846 33.4663 26.3932C33.3573 26.9742 33.2242 28.8623 33.1637 30.5931C33.1032 32.3239 33.0184 33.9579 32.9821 34.2242C32.8006 35.4588 32.0017 35.9671 30.0773 36.076L28.8064 36.1365V37.1169C28.8064 37.94 28.758 38.2184 28.4917 38.7388C27.6566 40.4091 25.7563 41.0506 24.0255 40.2396C23.0209 39.7555 22.4521 39.0898 22.1979 38.0973C22.1374 37.8431 22.1737 37.7947 22.3794 37.7947C22.791 37.7947 23.8924 37.3348 24.667 36.8265C26.2889 35.7855 27.6808 33.8732 27.8139 32.4934C27.8502 31.9971 27.8139 31.864 27.5476 31.5372C26.8577 30.7142 25.2117 30.3026 22.2705 30.2179C19.0025 30.109 16.7997 30.5447 15.8677 31.4646C15.4925 31.8398 15.4683 31.9124 15.5167 32.5176C15.6741 34.4057 17.8164 36.7417 20.1645 37.5769C20.9391 37.8553 20.9633 37.8674 20.9028 38.2426C20.7576 39.0777 19.8377 40.0339 18.7968 40.4091C18.24 40.6028 17.1749 40.627 16.5213 40.4454C15.8435 40.2639 14.7542 39.1261 14.4879 38.3394C14.3669 38.0126 14.2822 37.3832 14.2822 36.9475V36.1365L13.0476 36.076C11.6799 36.0034 11.1231 35.8219 10.6269 35.3014C10.1549 34.781 10.0701 34.2726 9.98542 31.1983C9.90069 27.9909 9.76755 26.599 9.42865 25.3523C9.00503 23.7546 8.2304 22.5685 7.05636 21.6849C6.66905 21.3944 6.31805 21.1161 6.29384 21.0798C6.25753 21.0313 6.56012 20.753 6.97164 20.4504C8.46037 19.3611 9.29551 17.8844 9.68283 15.6695C9.75545 15.2458 9.88859 13.2246 9.97331 11.1912C10.1065 7.899 10.1428 7.42697 10.3606 7.07596C10.76 6.38606 11.2321 6.19241 12.8419 6.04716L14.2822 5.91402V3.45701V0.999989L12.8661 1.01209C12.0793 1.0242 11.0747 1.07261 10.6269 1.12103Z" fill="#319795"/>
<path d="M14.9479 16.904C14.1975 17.2429 13.556 18.2354 13.556 19.0585C13.5681 19.8815 14.2822 20.9103 15.0447 21.2008C17.0055 21.9512 18.9178 19.821 17.9738 17.9449C17.4654 16.9524 15.9888 16.4441 14.9479 16.904Z" fill="#319795"/>
<path d="M26.5672 16.9041C25.7684 17.2551 25.1753 18.1628 25.1753 19.0222C25.1874 19.8815 25.8894 20.9103 26.664 21.2008C27.4266 21.4913 28.4554 21.2976 29.0968 20.7409C29.8594 20.0631 30.0046 18.4896 29.3752 17.6545C28.7337 16.8314 27.4992 16.4925 26.5672 16.9041Z" fill="#319795"/>
<path d="M53.8111 22V5.63636H58.1364V8.52344H58.3281C58.669 7.56463 59.2372 6.80824 60.0327 6.25426C60.8281 5.70028 61.7798 5.4233 62.8878 5.4233C64.0099 5.4233 64.9652 5.70384 65.7536 6.26491C66.5419 6.81889 67.0675 7.57173 67.3303 8.52344H67.5007C67.8345 7.58594 68.4382 6.83665 69.3118 6.27557C70.1925 5.70739 71.233 5.4233 72.4332 5.4233C73.9602 5.4233 75.1996 5.9098 76.1513 6.88281C77.1101 7.84872 77.5895 9.21946 77.5895 10.995V22H73.0618V11.8899C73.0618 10.9808 72.8203 10.299 72.3374 9.84446C71.8544 9.38991 71.2507 9.16264 70.5263 9.16264C69.7024 9.16264 69.0597 9.42543 68.598 9.95099C68.1364 10.4695 67.9055 11.1548 67.9055 12.0071V22H63.5057V11.794C63.5057 10.9915 63.2749 10.3523 62.8132 9.87642C62.3587 9.40057 61.7585 9.16264 61.0128 9.16264C60.5085 9.16264 60.054 9.29048 59.6491 9.54616C59.2514 9.79474 58.9354 10.1463 58.701 10.6009C58.4666 11.0483 58.3494 11.5739 58.3494 12.1776V22H53.8111ZM88.5678 22.3196C86.913 22.3196 85.4819 21.968 84.2745 21.2649C83.0742 20.5547 82.1474 19.5675 81.494 18.3033C80.8406 17.032 80.5138 15.5582 80.5138 13.8821C80.5138 12.1918 80.8406 10.7145 81.494 9.45028C82.1474 8.17898 83.0742 7.19176 84.2745 6.48864C85.4819 5.77841 86.913 5.4233 88.5678 5.4233C90.2227 5.4233 91.6502 5.77841 92.8505 6.48864C94.0579 7.19176 94.9883 8.17898 95.6417 9.45028C96.2951 10.7145 96.6218 12.1918 96.6218 13.8821C96.6218 15.5582 96.2951 17.032 95.6417 18.3033C94.9883 19.5675 94.0579 20.5547 92.8505 21.2649C91.6502 21.968 90.2227 22.3196 88.5678 22.3196ZM88.5891 18.804C89.342 18.804 89.9705 18.5909 90.4748 18.1648C90.979 17.7315 91.359 17.142 91.6147 16.3963C91.8775 15.6506 92.0089 14.8018 92.0089 13.8501C92.0089 12.8984 91.8775 12.0497 91.6147 11.304C91.359 10.5582 90.979 9.96875 90.4748 9.53551C89.9705 9.10227 89.342 8.88565 88.5891 8.88565C87.8292 8.88565 87.19 9.10227 86.6715 9.53551C86.1602 9.96875 85.7731 10.5582 85.5103 11.304C85.2546 12.0497 85.1268 12.8984 85.1268 13.8501C85.1268 14.8018 85.2546 15.6506 85.5103 16.3963C85.7731 17.142 86.1602 17.7315 86.6715 18.1648C87.19 18.5909 87.8292 18.804 88.5891 18.804ZM106.966 22.3196C105.311 22.3196 103.88 21.968 102.673 21.2649C101.473 20.5547 100.546 19.5675 99.8924 18.3033C99.239 17.032 98.9123 15.5582 98.9123 13.8821C98.9123 12.1918 99.239 10.7145 99.8924 9.45028C100.546 8.17898 101.473 7.19176 102.673 6.48864C103.88 5.77841 105.311 5.4233 106.966 5.4233C108.621 5.4233 110.049 5.77841 111.249 6.48864C112.456 7.19176 113.387 8.17898 114.04 9.45028C114.694 10.7145 115.02 12.1918 115.02 13.8821C115.02 15.5582 114.694 17.032 114.04 18.3033C113.387 19.5675 112.456 20.5547 111.249 21.2649C110.049 21.968 108.621 22.3196 106.966 22.3196ZM106.988 18.804C107.74 18.804 108.369 18.5909 108.873 18.1648C109.377 17.7315 109.757 17.142 110.013 16.3963C110.276 15.6506 110.407 14.8018 110.407 13.8501C110.407 12.8984 110.276 12.0497 110.013 11.304C109.757 10.5582 109.377 9.96875 108.873 9.53551C108.369 9.10227 107.74 8.88565 106.988 8.88565C106.228 8.88565 105.588 9.10227 105.07 9.53551C104.559 9.96875 104.172 10.5582 103.909 11.304C103.653 12.0497 103.525 12.8984 103.525 13.8501C103.525 14.8018 103.653 15.6506 103.909 16.3963C104.172 17.142 104.559 17.7315 105.07 18.1648C105.588 18.5909 106.228 18.804 106.988 18.804ZM124.001 22.2663C122.758 22.2663 121.632 21.9467 120.624 21.3075C119.623 20.6612 118.827 19.7131 118.238 18.4631C117.655 17.206 117.364 15.6648 117.364 13.8395C117.364 11.9645 117.666 10.4055 118.27 9.16264C118.873 7.91264 119.676 6.97869 120.677 6.3608C121.686 5.7358 122.79 5.4233 123.99 5.4233C124.907 5.4233 125.67 5.57955 126.281 5.89205C126.899 6.19744 127.396 6.58097 127.772 7.04261C128.156 7.49716 128.447 7.9446 128.646 8.38494H128.784V0.181818H133.312V22H128.838V19.3793H128.646C128.433 19.8338 128.131 20.2848 127.74 20.7322C127.357 21.1726 126.856 21.5384 126.238 21.8295C125.627 22.1207 124.882 22.2663 124.001 22.2663ZM125.439 18.6548C126.171 18.6548 126.789 18.456 127.293 18.0582C127.804 17.6534 128.195 17.0888 128.465 16.3643C128.742 15.6399 128.88 14.7912 128.88 13.8182C128.88 12.8452 128.745 12 128.475 11.2827C128.206 10.5653 127.815 10.0114 127.304 9.62074C126.792 9.23011 126.171 9.0348 125.439 9.0348C124.694 9.0348 124.065 9.23722 123.554 9.64204C123.042 10.0469 122.655 10.608 122.392 11.3253C122.13 12.0426 121.998 12.8736 121.998 13.8182C121.998 14.7699 122.13 15.6115 122.392 16.343C122.662 17.0675 123.049 17.6357 123.554 18.0476C124.065 18.4524 124.694 18.6548 125.439 18.6548Z" fill="black"/>
<path d="M77.5305 33.5824L77.3707 43H72.63L72.9922 21.1818H77.5945L77.456 29.5554H77.6477C78.0313 28.5824 78.642 27.8189 79.4801 27.2649C80.3253 26.7038 81.3622 26.4233 82.5909 26.4233C83.7344 26.4233 84.7251 26.6719 85.5632 27.169C86.4084 27.6662 87.0582 28.3764 87.5128 29.2997C87.9673 30.2159 88.1839 31.3061 88.1626 32.5703L87.9815 43H83.2408L83.4006 33.4545C83.4219 32.4744 83.1875 31.7109 82.6974 31.1641C82.2074 30.6172 81.5149 30.3438 80.62 30.3438C80.0234 30.3438 79.4943 30.4716 79.0327 30.7273C78.571 30.983 78.2088 31.3523 77.946 31.8352C77.6832 32.3182 77.5447 32.9006 77.5305 33.5824ZM98.9252 43.3089C97.2562 43.3089 95.8216 42.9574 94.6213 42.2543C93.421 41.5511 92.5012 40.5675 91.862 39.3033C91.2299 38.032 90.9281 36.5547 90.9565 34.8714C90.9849 33.1882 91.3365 31.7109 92.0112 30.4396C92.6859 29.1683 93.6341 28.1811 94.8556 27.478C96.0772 26.7749 97.5261 26.4233 99.2022 26.4233C100.871 26.4233 102.306 26.7784 103.506 27.4886C104.706 28.1918 105.623 29.179 106.255 30.4503C106.894 31.7145 107.199 33.1918 107.171 34.8821C107.143 36.5582 106.791 38.032 106.116 39.3033C105.442 40.5675 104.493 41.5511 103.272 42.2543C102.05 42.9574 100.601 43.3089 98.9252 43.3089ZM98.9998 39.6868C99.7172 39.6868 100.324 39.4808 100.822 39.0689C101.319 38.6499 101.699 38.0746 101.961 37.343C102.224 36.6115 102.363 35.777 102.377 34.8395C102.391 33.902 102.278 33.071 102.036 32.3466C101.802 31.6151 101.443 31.0398 100.96 30.6207C100.484 30.2017 99.8912 29.9922 99.1809 29.9922C98.4423 29.9922 97.8208 30.2017 97.3166 30.6207C96.8123 31.0398 96.4288 31.6151 96.166 32.3466C95.9032 33.0781 95.7647 33.9126 95.7505 34.8501C95.7363 35.7876 95.8464 36.6222 96.0808 37.3537C96.3223 38.0781 96.688 38.6499 97.1781 39.0689C97.6681 39.4808 98.2754 39.6868 98.9998 39.6868ZM120.557 36.0007L120.706 26.6364H125.426L125.149 43H120.632L120.685 40.0064H120.514C120.131 40.9794 119.502 41.7571 118.629 42.3395C117.762 42.9219 116.715 43.2131 115.486 43.2131C114.385 43.2131 113.419 42.9645 112.588 42.4673C111.764 41.9631 111.125 41.2528 110.671 40.3366C110.223 39.4134 110.01 38.3232 110.031 37.0661L110.202 26.6364H114.921L114.762 36.1925C114.747 37.1371 114.985 37.8828 115.475 38.4297C115.965 38.9766 116.633 39.25 117.478 39.25C118.018 39.25 118.519 39.1257 118.98 38.8771C119.442 38.6286 119.818 38.2663 120.11 37.7905C120.401 37.3075 120.55 36.7109 120.557 36.0007ZM133.583 33.5717L133.424 43H128.715L128.981 26.6364H133.477L133.424 29.5554H133.615C133.992 28.5895 134.613 27.826 135.48 27.2649C136.353 26.7038 137.394 26.4233 138.601 26.4233C139.745 26.4233 140.735 26.6754 141.574 27.1797C142.412 27.6768 143.058 28.3871 143.512 29.3104C143.967 30.2266 144.18 31.3132 144.152 32.5703L143.981 43H139.262L139.422 33.4439C139.443 32.4709 139.205 31.7074 138.708 31.1534C138.218 30.5994 137.529 30.3224 136.641 30.3224C136.051 30.3224 135.526 30.4538 135.064 30.7166C134.61 30.9723 134.251 31.3416 133.988 31.8246C133.733 32.3075 133.598 32.8899 133.583 33.5717ZM153.473 43.2557C152.238 43.2557 151.123 42.9361 150.128 42.2969C149.141 41.6577 148.363 40.7131 147.795 39.4631C147.234 38.2131 146.968 36.6683 146.996 34.8288C147.025 32.9467 147.351 31.3842 147.976 30.1413C148.608 28.8913 149.429 27.9609 150.437 27.3501C151.453 26.7322 152.55 26.4233 153.729 26.4233C154.631 26.4233 155.387 26.576 155.998 26.8814C156.609 27.1868 157.099 27.5703 157.468 28.032C157.845 28.4865 158.132 28.9446 158.331 29.4062H158.459L158.598 21.1818H163.317L162.955 43H158.289L158.331 40.3793H158.15C157.93 40.8409 157.618 41.2919 157.213 41.7322C156.815 42.1726 156.307 42.5384 155.689 42.8295C155.071 43.1136 154.333 43.2557 153.473 43.2557ZM155.071 39.527C155.767 39.527 156.364 39.3317 156.861 38.9411C157.365 38.5504 157.756 38.0036 158.033 37.3004C158.31 36.5902 158.456 35.7628 158.47 34.8182C158.484 33.8665 158.367 33.0426 158.118 32.3466C157.87 31.6506 157.5 31.1143 157.01 30.7379C156.527 30.3544 155.931 30.1626 155.221 30.1626C154.496 30.1626 153.885 30.358 153.388 30.7486C152.891 31.1321 152.507 31.6754 152.238 32.3786C151.975 33.0746 151.836 33.8878 151.822 34.8182C151.808 35.7486 151.922 36.5689 152.163 37.2791C152.412 37.9822 152.777 38.5327 153.26 38.9304C153.75 39.3281 154.354 39.527 155.071 39.527Z" fill="#319795"/>
</svg>
