<svg width="52" height="56" viewBox="0 0 52 56" fill="none" xmlns="http://www.w3.org/2000/svg">
<g filter="url(#filter0_d_109_45)">
<path d="M15.1269 0.121025C12.0647 0.484131 10.1524 1.94866 9.52297 4.41778C9.2809 5.41027 9.09934 7.96412 9.09934 10.5906C9.08724 13.1444 8.90569 14.3669 8.37313 15.4441C7.74375 16.715 6.82388 17.3201 5.202 17.5017L4.5 17.5864V20.0434V22.5005L4.95993 22.5731C6.53339 22.8152 7.47747 23.2751 8.01003 24.0497C8.82096 25.2359 9.09934 26.7488 9.09934 30.0773C9.11145 35.0639 9.52297 36.8553 10.9633 38.2229C12.3431 39.5301 13.5898 39.9295 16.5672 40.0264L18.528 40.099L18.9879 40.8373C19.5931 41.8177 20.864 43.0644 21.7717 43.5364C22.4859 43.9237 22.5101 43.9479 22.5827 44.5531C22.7642 45.9208 23.6599 47.2038 24.8218 47.7242C25.6812 48.1236 26.8794 48.0873 27.7146 47.6274C28.6466 47.119 29.3001 46.1266 29.4938 44.9646C29.5301 44.6983 29.5906 44.3594 29.6269 44.2142C29.6511 44.0569 29.9295 43.8148 30.3653 43.5727C31.2851 43.0523 32.3502 42.0114 33.0764 40.9583L33.6574 40.099L35.6303 40.0264C38.5957 39.9295 39.9391 39.4696 41.2221 38.1261C42.6261 36.6495 42.8561 35.7175 42.9892 30.6219C43.0498 28.5885 43.1466 26.652 43.2192 26.3252C43.5218 24.7759 44.248 23.5898 45.1679 23.1177C45.6157 22.8878 46.2451 22.7183 47.1408 22.5731L47.5886 22.5005V20.0434V17.5864L46.8987 17.5017C44.8774 17.2717 43.8607 16.3398 43.2918 14.2216C43.1466 13.677 43.0619 12.515 42.9771 9.68282C42.9166 7.39525 42.8077 5.495 42.6988 4.93823C42.0694 1.51293 39.5881 -1.14441e-05 34.5531 -1.14441e-05H33.3064V2.45701V4.91402L34.7467 5.04716C36.4654 5.19241 36.877 5.38606 37.2643 6.17279C37.5063 6.66904 37.5305 7.03214 37.6637 10.2638C37.7363 12.2246 37.8694 14.2822 37.9663 14.8389C38.3294 16.8844 39.1887 18.3853 40.6169 19.4383L41.4279 20.0313L41.1011 20.2734C39.1766 21.7016 38.3899 22.9846 37.9663 25.3932C37.8573 25.9742 37.7242 27.8623 37.6637 29.5931C37.6032 31.3239 37.5184 32.9579 37.4821 33.2242C37.3006 34.4588 36.5017 34.9671 34.5773 35.076L33.3064 35.1365V36.1169C33.3064 36.94 33.258 37.2184 32.9917 37.7388C32.1566 39.4091 30.2563 40.0506 28.5255 39.2396C27.5209 38.7555 26.9521 38.0898 26.6979 37.0973C26.6374 36.8431 26.6737 36.7947 26.8794 36.7947C27.291 36.7947 28.3924 36.3348 29.167 35.8265C30.7889 34.7855 32.1808 32.8732 32.3139 31.4934C32.3502 30.9971 32.3139 30.864 32.0476 30.5372C31.3577 29.7142 29.7117 29.3026 26.7705 29.2179C23.5025 29.109 21.2997 29.5447 20.3677 30.4646C19.9925 30.8398 19.9683 30.9124 20.0167 31.5176C20.1741 33.4057 22.3164 35.7417 24.6645 36.5769C25.4391 36.8553 25.4633 36.8674 25.4028 37.2426C25.2576 38.0777 24.3377 39.0339 23.2968 39.4091C22.74 39.6028 21.6749 39.627 21.0213 39.4454C20.3435 39.2639 19.2542 38.1261 18.9879 37.3394C18.8669 37.0126 18.7822 36.3832 18.7822 35.9475V35.1365L17.5476 35.076C16.1799 35.0034 15.6231 34.8219 15.1269 34.3014C14.6549 33.781 14.5701 33.2726 14.4854 30.1983C14.4007 26.9909 14.2676 25.599 13.9287 24.3523C13.505 22.7546 12.7304 21.5685 11.5564 20.6849C11.169 20.3944 10.818 20.1161 10.7938 20.0798C10.7575 20.0313 11.0601 19.753 11.4716 19.4504C12.9604 18.3611 13.7955 16.8844 14.1828 14.6695C14.2554 14.2458 14.3886 12.2246 14.4733 10.1912C14.6065 6.899 14.6428 6.42697 14.8606 6.07596C15.26 5.38606 15.7321 5.19241 17.3419 5.04716L18.7822 4.91402V2.45701V-1.14441e-05L17.3661 0.0120926C16.5793 0.0241966 15.5747 0.0726089 15.1269 0.121025Z" fill="#319795"/>
<path d="M19.4479 15.9041C18.6975 16.243 18.056 17.2355 18.056 18.0585C18.0681 18.8815 18.7822 19.9103 19.5448 20.2008C21.5055 20.9512 23.4179 18.821 22.4738 16.945C21.9655 15.9525 20.4888 15.4441 19.4479 15.9041Z" fill="#319795"/>
<path d="M31.0672 15.904C30.2684 16.255 29.6753 17.1628 29.6753 18.0221C29.6874 18.8815 30.3894 19.9103 31.164 20.2008C31.9266 20.4913 32.9554 20.2976 33.5968 19.7408C34.3594 19.063 34.5046 17.4896 33.8752 16.6544C33.2337 15.8314 31.9992 15.4925 31.0672 15.904Z" fill="#319795"/>
</g>
<defs>
<filter id="filter0_d_109_45" x="0.5" y="0" width="51.0886" height="56" filterUnits="userSpaceOnUse" color-interpolation-filters="sRGB">
<feFlood flood-opacity="0" result="BackgroundImageFix"/>
<feColorMatrix in="SourceAlpha" type="matrix" values="0 0 0 0 0 0 0 0 0 0 0 0 0 0 0 0 0 0 127 0" result="hardAlpha"/>
<feOffset dy="4"/>
<feGaussianBlur stdDeviation="2"/>
<feComposite in2="hardAlpha" operator="out"/>
<feColorMatrix type="matrix" values="0 0 0 0 0 0 0 0 0 0 0 0 0 0 0 0 0 0 0.25 0"/>
<feBlend mode="normal" in2="BackgroundImageFix" result="effect1_dropShadow_109_45"/>
<feBlend mode="normal" in="SourceGraphic" in2="effect1_dropShadow_109_45" result="shape"/>
</filter>
</defs>
</svg>
